<?xml version="1.0" encoding="UTF-8"?>
<svg width="1200pt" height="1200pt" version="1.1" viewBox="0 0 1200 1200" xmlns="http://www.w3.org/2000/svg">
 <path d="m316.61 458.3h-0.35547c-18.797 0-36.816 7.4609-50.113 20.758-13.273 13.273-20.734 31.293-20.734 50.09v283.39c0 39.133 31.715 70.848 70.848 70.848h567.14c18.797 0 36.816-7.4609 50.09-20.758 13.297-13.273 20.758-31.293 20.758-50.09v-377.86c0-18.797-7.4609-36.816-20.758-50.09-13.273-13.297-31.293-20.758-50.09-20.758h-172.35c-16.105 0-31.715 5.4805-44.281 15.516l-39.91 31.93c-1.0391-0.14062-2.125-0.21094-3.2344-0.21094-7.4375 0-14.43-3.4961-18.895-9.4453l-42.508-56.68c-13.391-17.832-34.387-28.34-56.68-28.34h-118.08c-39.133 0-70.848 31.715-70.848 70.848v70.848zm266.98-12.398c-6.3047-4.3203-11.949-9.6836-16.648-15.941l-42.508-56.68c-4.4648-5.9531-11.453-9.4453-18.895-9.4453h-118.08c-13.035 0-23.617 10.578-23.617 23.617v70.848h195.96c5.3594 0 10.578-1.8203 14.762-5.1719l9.0195-7.2266z" fill-rule="evenodd"/>
</svg>
