<?xml version="1.0" encoding="UTF-8"?>
<svg width="1200pt" height="1200pt" version="1.1" viewBox="0 0 1200 1200" xmlns="http://www.w3.org/2000/svg">
 <path d="m1087.5 1050v-900c-0.13281-23.164-9.3906-45.348-25.773-61.727-16.379-16.383-38.562-25.641-61.727-25.773h-800c-23.164 0.13281-45.348 9.3906-61.727 25.773-16.383 16.379-25.641 38.562-25.773 61.727v900c0.13281 23.164 9.3906 45.348 25.773 61.727 16.379 16.383 38.562 25.641 61.727 25.773h800c23.164-0.13281 45.348-9.3906 61.727-25.773 16.383-16.379 25.641-38.562 25.773-61.727zm-825 12.5h-62.5c-6.9023 0-12.5-5.5977-12.5-12.5v-900c0-6.9023 5.5977-12.5 12.5-12.5h62.5zm237.5-750h200c13.398 0 25.777 7.1484 32.477 18.75 6.6992 11.602 6.6992 25.898 0 37.5-6.6992 11.602-19.078 18.75-32.477 18.75h-200c-13.398 0-25.777-7.1484-32.477-18.75-6.6992-11.602-6.6992-25.898 0-37.5 6.6992-11.602 19.078-18.75 32.477-18.75zm350 275h-350c-13.398 0-25.777-7.1484-32.477-18.75-6.6992-11.602-6.6992-25.898 0-37.5 6.6992-11.602 19.078-18.75 32.477-18.75h350c13.398 0 25.777 7.1484 32.477 18.75 6.6992 11.602 6.6992 25.898 0 37.5-6.6992 11.602-19.078 18.75-32.477 18.75z"/>
</svg>
