<?xml version="1.0" encoding="UTF-8"?>
<svg width="1200pt" height="1200pt" version="1.1" viewBox="0 0 1200 1200" xmlns="http://www.w3.org/2000/svg">
 <g>
  <path d="m600 487.5c0 10.355-8.3945 18.75-18.75 18.75h-262.5c-10.355 0-18.75-8.3945-18.75-18.75s8.3945-18.75 18.75-18.75h262.5c10.355 0 18.75 8.3945 18.75 18.75z"/>
  <path d="m900 637.5c0 10.355-8.3945 18.75-18.75 18.75h-562.5c-10.355 0-18.75-8.3945-18.75-18.75s8.3945-18.75 18.75-18.75h562.5c10.355 0 18.75 8.3945 18.75 18.75z"/>
  <path d="m900 787.5c0 10.355-8.3945 18.75-18.75 18.75h-562.5c-10.355 0-18.75-8.3945-18.75-18.75s8.3945-18.75 18.75-18.75h562.5c10.355 0 18.75 8.3945 18.75 18.75z"/>
  <path d="m881.25 956.25c10.355 0 18.75-8.3945 18.75-18.75s-8.3945-18.75-18.75-18.75h-562.5c-10.355 0-18.75 8.3945-18.75 18.75s8.3945 18.75 18.75 18.75z"/>
  <path d="m243.75 75c-31.066 0-56.25 25.184-56.25 56.25v937.5c0 31.066 25.184 56.25 56.25 56.25h712.5c31.066 0 56.25-25.184 56.25-56.25v-750c0-4.9727-1.9766-9.7422-5.4922-13.258l-225-225c-3.5156-3.5156-8.2852-5.4922-13.258-5.4922zm-18.75 56.25c0-10.355 8.3945-18.75 18.75-18.75h506.25v168.75c0 31.066 25.184 56.25 56.25 56.25h168.75v731.25c0 10.355-8.3945 18.75-18.75 18.75h-712.5c-10.355 0-18.75-8.3945-18.75-18.75zm723.48 168.75-160.98-160.98v142.23c0 10.355 8.3945 18.75 18.75 18.75z" fill-rule="evenodd"/>
 </g>
</svg>
